<svg xmlns="http://www.w3.org/2000/svg" xmlns:xlink="http://www.w3.org/1999/xlink" width="39.572" height="43.51" viewBox="0 0 39.572 43.51">
  <defs>
    <filter id="Icon_awesome-discord" x="0" y="0" width="39.572" height="43.51" filterUnits="userSpaceOnUse">
      <feOffset dy="3" input="SourceAlpha"/>
      <feGaussianBlur stdDeviation="2" result="blur"/>
      <feFlood flood-opacity="0.161"/>
      <feComposite operator="in" in2="blur"/>
      <feComposite in="SourceGraphic"/>
    </filter>
  </defs>
  <g transform="matrix(1, 0, 0, 1, 0, 0)" filter="url(#Icon_awesome-discord)">
    <path id="Icon_awesome-discord-2" data-name="Icon awesome-discord" d="M18.292,14.968a1.613,1.613,0,1,1-1.607-1.749A1.679,1.679,0,0,1,18.292,14.968Zm-7.358-1.749a1.755,1.755,0,0,0,0,3.5,1.679,1.679,0,0,0,1.607-1.749A1.668,1.668,0,0,0,10.934,13.219ZM27.572,3.246V31.511c-3.969-3.508-2.7-2.347-7.31-6.633l.835,2.915H3.23A3.238,3.238,0,0,1,0,24.547V3.246A3.238,3.238,0,0,1,3.23,0H24.342A3.238,3.238,0,0,1,27.572,3.246Zm-4.49,14.936A21.1,21.1,0,0,0,20.813,9a7.791,7.791,0,0,0-4.427-1.654l-.221.252a10.486,10.486,0,0,1,3.923,2A13.387,13.387,0,0,0,8.319,9.138c-.583.268-.93.457-.93.457a10.629,10.629,0,0,1,4.144-2.064l-.158-.189A7.791,7.791,0,0,0,6.948,9a21.1,21.1,0,0,0-2.269,9.185,5.712,5.712,0,0,0,4.805,2.395s.583-.709,1.056-1.308A4.9,4.9,0,0,1,7.783,17.41c.232.162.614.373.646.394a11.485,11.485,0,0,0,9.831.551,9.016,9.016,0,0,0,1.812-.93A4.972,4.972,0,0,1,17.221,19.3c.473.6,1.04,1.276,1.04,1.276A5.759,5.759,0,0,0,23.081,18.182Z" transform="translate(6 3)" fill="#fff"/>
  </g>
</svg>
