<svg xmlns="http://www.w3.org/2000/svg" xmlns:xlink="http://www.w3.org/1999/xlink" width="43.187" height="43.187" viewBox="0 0 43.187 43.187">
  <defs>
    <filter id="Icon_awesome-dribbble" x="0" y="0" width="43.187" height="43.187" filterUnits="userSpaceOnUse">
      <feOffset dy="3" input="SourceAlpha"/>
      <feGaussianBlur stdDeviation="2" result="blur"/>
      <feFlood flood-opacity="0.161"/>
      <feComposite operator="in" in2="blur"/>
      <feComposite in="SourceGraphic"/>
    </filter>
  </defs>
  <g transform="matrix(1, 0, 0, 1, 0, 0)" filter="url(#Icon_awesome-dribbble)">
    <path id="Icon_awesome-dribbble-2" data-name="Icon awesome-dribbble" d="M16.156.563A15.594,15.594,0,1,0,31.75,16.156,15.611,15.611,0,0,0,16.156.563Zm10.31,7.191a13.256,13.256,0,0,1,3.008,8.3,31.126,31.126,0,0,0-9.275-.429c-.362-.883-.7-1.66-1.171-2.617A17.742,17.742,0,0,0,26.466,7.754Zm-1.481-1.54A15.038,15.038,0,0,1,18,11.025a71.1,71.1,0,0,0-4.97-7.8,13.285,13.285,0,0,1,11.95,2.986ZM10.493,4.123a84.986,84.986,0,0,1,4.938,7.7A49.681,49.681,0,0,1,3.118,13.448,13.368,13.368,0,0,1,10.493,4.123ZM2.837,16.176c0-.136,0-.272.007-.407a49.132,49.132,0,0,0,13.689-1.9c.381.746.746,1.5,1.08,2.26A20.631,20.631,0,0,0,6.261,25.082,13.266,13.266,0,0,1,2.837,16.176ZM7.981,26.684c1.391-2.844,5.167-6.515,10.537-8.347a55.364,55.364,0,0,1,2.841,10.1A13.292,13.292,0,0,1,7.981,26.684Zm15.617.534a57.487,57.487,0,0,0-2.588-9.5,19.55,19.55,0,0,1,8.3.569A13.343,13.343,0,0,1,23.6,27.218Z" transform="translate(5.44 2.44)" fill="#fff"/>
  </g>
</svg>
