<svg xmlns="http://www.w3.org/2000/svg" xmlns:xlink="http://www.w3.org/1999/xlink" width="299.665" height="131.128" viewBox="0 0 299.665 131.128">
  <defs>
    <filter id="Icon_awesome-paypal" x="25.506" y="0" width="77.013" height="87.709" filterUnits="userSpaceOnUse">
      <feOffset dy="3" input="SourceAlpha"/>
      <feGaussianBlur stdDeviation="3" result="blur"/>
      <feFlood flood-opacity="0.161"/>
      <feComposite operator="in" in2="blur"/>
      <feComposite in="SourceGraphic"/>
    </filter>
    <filter id="Buy_me_a_coffee" x="0" y="64.128" width="297" height="67" filterUnits="userSpaceOnUse">
      <feOffset dy="3" input="SourceAlpha"/>
      <feGaussianBlur stdDeviation="3" result="blur-2"/>
      <feFlood flood-opacity="0.161"/>
      <feComposite operator="in" in2="blur-2"/>
      <feComposite in="SourceGraphic"/>
    </filter>
    <filter id="Icon_simple-googlepay" x="106.334" y="0" width="193.331" height="83.756" filterUnits="userSpaceOnUse">
      <feOffset dy="3" input="SourceAlpha"/>
      <feGaussianBlur stdDeviation="3" result="blur-3"/>
      <feFlood flood-opacity="0.161"/>
      <feComposite operator="in" in2="blur-3"/>
      <feComposite in="SourceGraphic"/>
    </filter>
  </defs>
  <g id="Group_8" data-name="Group 8" transform="translate(-91 -918.872)">
    <g id="Group_7" data-name="Group 7">
      <g id="Group_1" data-name="Group 1" transform="translate(-29.795 65.641)">
        <g transform="matrix(1, 0, 0, 1, 120.79, 853.23)" filter="url(#Icon_awesome-paypal)">
          <path id="Icon_awesome-paypal-2" data-name="Icon awesome-paypal" d="M17.117,43.04c-.538,2.951-2.675,16.709-3.3,20.6-.046.277-.154.384-.461.384H1.884a1.868,1.868,0,0,1-1.86-2.137L9.031,4.719a3.122,3.122,0,0,1,3.074-2.6c23.411,0,25.378-.569,31.358,1.752C52.7,7.456,53.547,16.094,50.227,25.44c-3.3,9.622-11.144,13.757-21.535,13.88-6.671.108-10.683-1.076-11.575,3.72ZM54.884,20.921c-.277-.2-.384-.277-.461.2a35.976,35.976,0,0,1-1.353,5.165C46.937,43.778,29.937,42.256,21.636,42.256A1.547,1.547,0,0,0,19.961,43.7c-3.474,21.581-4.166,26.085-4.166,26.085a1.637,1.637,0,0,0,1.629,1.983h9.761a2.757,2.757,0,0,0,2.675-2.29c.108-.83-.169.938,2.213-14.034.707-3.382,2.2-3.028,4.5-3.028,10.914,0,19.429-4.427,21.966-17.262,1-5.349.707-10.975-3.658-14.234Z" transform="translate(34.5 3.94)" fill="#fff"/>
        </g>
        <g transform="matrix(1, 0, 0, 1, 120.79, 853.23)" filter="url(#Buy_me_a_coffee)">
          <text id="Buy_me_a_coffee-2" data-name="Buy me a coffee" transform="translate(9 110.13)" fill="#f5f5f5" font-size="37" font-family="SegoeUI-Bold, Segoe UI" font-weight="700"><tspan x="0" y="0">Buy me a coffee</tspan></text>
        </g>
      </g>
      <g transform="matrix(1, 0, 0, 1, 91, 918.87)" filter="url(#Icon_simple-googlepay)">
        <path id="Icon_simple-googlepay-2" data-name="Icon simple-googlepay" d="M175.332,26.616l-22.9,51.139h-7.072l8.5-17.9L138.8,26.616h7.452l10.885,25.5h.146l10.579-25.5ZM80.235,42.44v20.7H73.053V12H92.1a18.118,18.118,0,0,1,12.325,4.427,13.935,13.935,0,0,1,0,21.647A18.055,18.055,0,0,1,92.1,42.432H80.235ZM80.22,18.3V36.157H92.26a10,10,0,0,0,7.108-2.645,8.211,8.211,0,0,0,0-12.5A9.811,9.811,0,0,0,92.26,18.3Zm43.768,8.314q6.871,0,10.849,3.814T138.8,40.891V62.026h-5.925V57.263h-.27q-3.846,5.885-10.228,5.881a13.02,13.02,0,0,1-9.132-3.361,10.907,10.907,0,0,1-3.667-8.4,10.34,10.34,0,0,1,3.872-8.46q3.868-3.145,10.337-3.149a17.735,17.735,0,0,1,9.081,2.1V40.4a7.452,7.452,0,0,0-2.557-5.7,8.584,8.584,0,0,0-5.976-2.352,9.381,9.381,0,0,0-8.212,4.551l-5.457-3.565q4.493-6.718,13.318-6.721Zm-8.014,24.912a5.209,5.209,0,0,0,2.06,4.2,7.4,7.4,0,0,0,4.814,1.68,9.732,9.732,0,0,0,6.962-3.01,9.57,9.57,0,0,0,3.083-7.065q-2.9-2.411-8.08-2.4a10.177,10.177,0,0,0-6.3,1.9,5.681,5.681,0,0,0-2.542,4.7ZM29.811,12a28.974,28.974,0,0,1,19.944,7.612l-8.5,8.343a16.365,16.365,0,0,0-11.441-4.383A17.8,17.8,0,0,0,13.074,35.631a17.175,17.175,0,0,0,0,11.192A17.8,17.8,0,0,0,29.811,58.877a18.2,18.2,0,0,0,10.155-2.783A13.549,13.549,0,0,0,45.913,47.2h-16.1V35.952H57.931a34.441,34.441,0,0,1,.511,5.939c0,8.891-3.244,16.416-8.869,21.5-4.939,4.471-11.718,7.057-19.762,7.057a29.88,29.88,0,0,1-26.636-16.1,28.7,28.7,0,0,1,0-26.242A29.88,29.88,0,0,1,29.8,12Z" transform="translate(115.33 -6)" fill="#fff"/>
      </g>
    </g>
  </g>
</svg>
