<svg xmlns="http://www.w3.org/2000/svg" xmlns:xlink="http://www.w3.org/1999/xlink" width="43.001" height="43" viewBox="0 0 43.001 43">
  <defs>
    <filter id="Icon_awesome-linkedin-in" x="0" y="0" width="43.001" height="43" filterUnits="userSpaceOnUse">
      <feOffset dy="3" input="SourceAlpha"/>
      <feGaussianBlur stdDeviation="2" result="blur"/>
      <feFlood flood-opacity="0.161"/>
      <feComposite operator="in" in2="blur"/>
      <feComposite in="SourceGraphic"/>
    </filter>
  </defs>
  <g transform="matrix(1, 0, 0, 1, 0, 0)" filter="url(#Icon_awesome-linkedin-in)">
    <path id="Icon_awesome-linkedin-in-2" data-name="Icon awesome-linkedin-in" d="M6.939,31H.512V10.3H6.939ZM3.722,7.48A3.74,3.74,0,1,1,7.444,3.723,3.754,3.754,0,0,1,3.722,7.48ZM30.994,31H24.581V20.925c0-2.4-.048-5.48-3.342-5.48-3.342,0-3.854,2.609-3.854,5.307V31h-6.42V10.3h6.164v2.823h.09A6.753,6.753,0,0,1,23.3,9.785c6.5,0,7.7,4.283,7.7,9.847V31Z" transform="translate(6 3)" fill="#fff"/>
  </g>
</svg>
